PathFileType	4	(X/Y/Z)	C:/Users/opensim2020/Desktop/walking_exp_matlab/subject06_walking15_straight_04.trc																																																																																																																																											
DataRate	CameraRate	NumFrames	NumMarkers	Units	OrigDataRate	OrigDataStartFrame	OrigNumFrames																																																																																																																																							
100	100	4	47	mm	100	2862	157																																																																																																																																							
Frame#	Time	LFHD			RFHD			LBHD			RBHD			C7			T10			CLAV			STRN			RBAK			LSHO			LUPA			LELB			LFRM			LWRA			LWRB			LFIN			RSHO			RUPA			RELB			RFRM			RWRA			RWRB			RFIN			LASI			RASI			LPSI			RPSI			LTHI			LKNE			LTIB			LANK			LHEE			LTOE			RTHI			RKNE			RTIB			RANK			RHEE			RTOE			*39			*40			*41			*42			*43			*44			*45			*46		
		X1	Y1	Z1	X2	Y2	Z2	X3	Y3	Z3	X4	Y4	Z4	X5	Y5	Z5	X6	Y6	Z6	X7	Y7	Z7	X8	Y8	Z8	X9	Y9	Z9	X10	Y10	Z10	X11	Y11	Z11	X12	Y12	Z12	X13	Y13	Z13	X14	Y14	Z14	X15	Y15	Z15	X16	Y16	Z16	X17	Y17	Z17	X18	Y18	Z18	X19	Y19	Z19	X20	Y20	Z20	X21	Y21	Z21	X22	Y22	Z22	X23	Y23	Z23	X24	Y24	Z24	X25	Y25	Z25	X26	Y26	Z26	X27	Y27	Z27	X28	Y28	Z28	X29	Y29	Z29	X30	Y30	Z30	X31	Y31	Z31	X32	Y32	Z32	X33	Y33	Z33	X34	Y34	Z34	X35	Y35	Z35	X36	Y36	Z36	X37	Y37	Z37	X38	Y38	Z38	X39	Y39	Z39	X40	Y40	Z40	X41	Y41	Z41	X42	Y42	Z42	X43	Y43	Z43	X44	Y44	Z44	X45	Y45	Z45	X46	Y46	Z46	X47	Y47	Z47
																																																																																																																																														
1	0	-1020.94763	1661.58179	861.49011	-995.46356	1657.95776	991.14111	-1149.81812	1603.41101	889.6474	-1123.08362	1605.07275	1016.50061	-1135.25269	1450.68213	939.12305	-1165.03284	1121.57837	950.92603	-1023.06879	1375.87817	936.96735	-982.61646	1202.1001	931.67657	-1205.0575	1281.9939	1018.27155	-1081.95715	1406.03149	776.42401	-1066.40259	1205.49414	699.28912	-1054.6571	1093.12256	684.2243	-992.78119	955.56763	666.0473	-905.12848	863.55823	711.43005	-961.5072	840.42877	673.8764	-898.30853	775.80249	674.79407	-1066.23499	1407.82898	1099.48657	-1124.57581	1216.21472	1188.91223	-1129.5863	1093.73535	1202.35278	-1127.58032	973.40143	1220.5332	-1084.86267	827.31622	1188.24097	-1137.36584	836.31067	1231.96533	-1111.44507	755.07202	1231.39551	-988.01056	962.84589	843.71655	-986.10864	975.61658	1062.45642	-1145.55688	988.39667	876.57806	-1137.69275	991.02161	1044.323	-1063.65125	647.39746	798.39331	-1076.39368	483.76453	823.84094	-1138.48706	232.64925	839.7002	-1160.17432	64.43734	891.46051	-1201.32739	52.30569	936.40692	-1016.92969	34.34718	893.48486	-949.54816	654.09766	1137.51172	-899.9588	537.95435	1117.74792	-994.22644	292.12302	1114.30188	-1052.34021	115.14628	1072.43286	-1088.70618	97.08785	1021.34027	-918.7832	44.84257	1098.68262	-1109.43445	1700.62512	936.94348	NaN	NaN	NaN	NaN	NaN	NaN	NaN	NaN	NaN	NaN	NaN	NaN	NaN	NaN	NaN	NaN	NaN	NaN	NaN	NaN	NaN
2	0.01	-1010.9762	1660.81763	862.72095	-985.31165	1656.94958	992.29517	-1139.87012	1602.79456	890.89105	-1113.06763	1604.2478	1017.74615	-1125.47192	1449.92004	940.07617	-1155.66785	1120.91174	951.83594	-1013.27063	1375.09094	937.7981	-973.12988	1201.25415	931.97131	-1195.39233	1281.2113	1018.99048	-1072.31189	1405.58936	777.32745	-1054.75964	1205.44836	699.73181	-1041.19214	1093.34546	684.23779	-975.21942	957.63159	666.21814	-884.48914	868.84222	712.01221	-940.18378	843.88428	674.50037	-874.67822	781.27893	675.54474	-1056.44507	1406.80225	1100.4054	-1116.43335	1215.6748	1189.45789	-1122.47241	1093.25757	1203.01355	-1122.03516	972.91931	1221.4408	-1080.97681	826.18176	1189.92712	-1133.72656	835.8576	1233.00281	-1108.92896	754.44781	1233.05164	-979.24786	961.91193	843.66248	-976.25507	974.8858	1062.56067	-1136.7655	987.67047	877.47498	-1128.04443	990.2655	1045.14209	-1057.62061	646.80231	798.88568	-1072.46887	483.24695	824.04675	-1136.76465	232.6541	839.9342	-1159.88892	64.5634	891.6651	-1201.12415	52.59647	936.62695	-1016.81897	34.27335	893.42053	-939.18793	653.86517	1137.79443	-889.63361	537.58514	1117.80505	-973.35376	287.10608	1115.27209	-1020.77478	106.82307	1074.28955	-1055.4353	86.43877	1022.83118	-883.83417	43.87425	1101.76074	-1099.3241	1699.86646	938.2915	NaN	NaN	NaN	NaN	NaN	NaN	NaN	NaN	NaN	NaN	NaN	NaN	NaN	NaN	NaN	NaN	NaN	NaN	NaN	NaN	NaN
3	0.02	-1001.0224	1659.96484	863.94653	-975.21179	1655.92896	993.49847	-1129.86548	1602.02356	892.15448	-1102.97546	1603.30042	1019.01532	-1115.63831	1449.12085	941.14117	-1146.16357	1120.06018	952.70813	-1003.51337	1374.22644	938.62927	-963.45386	1200.34924	932.36633	-1185.60681	1280.28284	1019.79608	-1062.57581	1405.08826	778.27515	-1043.27014	1205.39136	700.22119	-1027.85974	1093.36987	684.52216	-957.85535	959.82465	666.61304	-864.336	874.33893	712.80872	-918.84729	847.32214	675.40411	-851.42053	787.13049	676.40857	-1046.49536	1405.69336	1101.35645	-1108.04077	1214.98474	1189.98669	-1115.1947	1092.71399	1203.7312	-1116.23853	972.41376	1222.43164	-1076.71484	825.08899	1191.58411	-1129.72742	835.52167	1234.28638	-1105.98352	753.81964	1234.73767	-970.62134	960.78583	843.70233	-966.35498	973.95764	1062.78381	-1127.8324	986.80414	878.36896	-1118.51111	989.37573	1045.90479	-1051.36584	646.07025	799.4566	-1068.24976	482.70886	824.34326	-1134.65479	232.55176	840.15253	-1159.51416	64.73167	891.92175	-1200.83179	52.92854	936.9032	-1016.6488	34.19455	893.37817	-929.7215	652.95807	1138.13281	-880.30927	536.61981	1117.9054	-952.54529	282.08221	1116.49084	-988.89081	99.12643	1076.20056	-1021.80884	76.68142	1024.38269	-848.74323	43.45009	1104.41589	-1089.28247	1699.01978	939.74091	NaN	NaN	NaN	NaN	NaN	NaN	NaN	NaN	NaN	NaN	NaN	NaN	NaN	NaN	NaN	NaN	NaN	NaN	NaN	NaN	NaN
4	0.03	-990.98322	1659.06055	865.20905	-965.0274	1654.79004	994.77026	-1119.85498	1601.18066	893.51563	-1092.84912	1602.25354	1020.3266	-1105.69397	1448.1969	942.22705	-1136.61731	1119.13062	953.64319	-993.6673	1373.23083	939.50684	-953.79181	1199.33093	932.70801	-1175.75659	1279.34033	1020.72119	-1052.79346	1404.5564	779.30341	-1031.90173	1205.271	700.82587	-1014.67548	1093.66431	684.6181	-940.80609	962.13239	666.92957	-844.46887	880.04987	713.69775	-898.33057	851.17847	676.37756	-828.47809	793.27789	677.49609	-1036.43738	1404.47205	1102.31348	-1099.44836	1214.33557	1190.7594	-1107.68542	1092.11719	1204.54968	-1110.13611	971.84296	1223.43359	-1072.07617	824.00348	1193.2533	-1125.38953	835.16376	1235.50854	-1102.69153	753.21851	1236.47461	-962.08331	959.40845	843.74481	-956.53137	972.81049	1063.02808	-1118.80286	985.89795	879.23901	-1109.02734	988.46149	1046.72339	-1045.01135	645.34991	800.01483	-1063.67676	482.04034	824.72247	-1132.42261	232.51341	840.37537	-1159.05872	64.89705	892.13898	-1200.52429	53.32695	937.12915	-1016.50452	34.13818	893.36023	-921.13171	651.37262	1138.37244	-871.74811	535.1864	1118.38538	-931.72778	277.20868	1117.89563	-956.78955	92.25508	1078.33032	-988.026	67.98423	1026.27454	-813.96124	43.73186	1106.89917	-1079.09167	1698.06274	941.15881	NaN	NaN	NaN	NaN	NaN	NaN	NaN	NaN	NaN	NaN	NaN	NaN	NaN	NaN	NaN	NaN	NaN	NaN	NaN	NaN	NaN
